<?xml version="1.0" encoding="UTF-8"?>
<svg id="_레이어_2" data-name="레이어_2" xmlns="http://www.w3.org/2000/svg" viewBox="0 0 35.05 38.99">
  <g id="_레이어_1-2" data-name="레이어_1">
    <g>
      <path d="M5.57,10.37h-3.47v6.32H0V0h5.57c3.75,0,5.85,1.9,5.85,5.17s-2.1,5.2-5.85,5.2ZM5.37,1.75h-3.27v6.87h3.27c2.62,0,3.82-1.1,3.82-3.45s-1.2-3.42-3.82-3.42Z"/>
      <path d="M23.8,16.7l-1.7-4.67h-7.1l-1.67,4.67h-2.07L17.42,0h2.33l6.17,16.7h-2.12ZM18.52,2.27l-2.88,7.97h5.82l-2.9-7.97h-.05Z"/>
      <path d="M5.36,38.7v-16.37h4.88c5.12,0,8.09,2.92,8.09,8.14s-3.04,8.23-8.09,8.23h-4.88ZM7.42,24.09v12.84h2.82c3.75,0,5.93-2.25,5.93-6.47s-2.13-6.37-5.93-6.37h-2.82Z"/>
      <path d="M22.6,24.31c1.3-1.52,3.06-2.28,5.24-2.28s3.95.76,5.24,2.28c1.3,1.54,1.96,3.6,1.96,6.2s-.66,4.66-1.96,6.17c-1.3,1.54-3.06,2.3-5.24,2.3s-3.95-.76-5.24-2.3c-1.3-1.52-1.96-3.58-1.96-6.17s.66-4.66,1.96-6.2ZM31.52,25.59c-.91-1.2-2.13-1.81-3.68-1.81s-2.77.61-3.65,1.81c-.91,1.2-1.35,2.84-1.35,4.93s.44,3.72,1.35,4.93c.88,1.2,2.11,1.81,3.65,1.81s2.77-.61,3.68-1.81c.88-1.2,1.32-2.84,1.32-4.93s-.44-3.73-1.32-4.93Z"/>
    </g>
  </g>
</svg>