<?xml version="1.0" encoding="UTF-8"?>
<svg id="_레이어_2" data-name="레이어_2" xmlns="http://www.w3.org/2000/svg" viewBox="0 0 30.16 38.76">
  <g id="_레이어_1-2" data-name="레이어_1">
    <g>
      <path d="M19.86,10.88c-.78-.11-1.74-.19-3.28-.13v6.9c0,.92-.27,1.67-.57,2.12-.31.47-.73.99-1.26.99-.31,0-.44-.56-.44-1.86v-6.32c-.4.3-.86.54-1.32.75-2.37,1.11-5.4,1.93-8.67,2.49-.25.04-.78.24-.97.32-.34.15-.48.19-.92-.02-.78-.39-1.85-1.22-2.31-1.8-.23-.28-.1-.75.15-.66.44.15,1.34.21,1.95.21,1.3,0,3.36-.3,5.5-.73.19-1.29.4-2.81.5-3.79.11-.92-.11-1.63-.86-2.01-.17-.08.17-.39.46-.41.82-.08,2.52.19,3.15.56.44.26.17.28-.04.92-.42,1.37-.88,2.85-1.41,4.33,1.83-.41,3.57-.88,4.79-1.29V3.92c0-1.2-.06-1.8-.44-2.33-.32-.45-.74-.77-1.22-1.05-.19-.11.15-.54.57-.54,1.22,0,2.65.54,3.3.94.32.19.29.34.25.64-.12.96-.19,2.12-.19,3.3v4.2c.71-.11,1.41-.28,2.14-.49.23-.06.36-.04.5.04.44.26,1.15.88,1.26,1.07.15.26-.36,1.22-.63,1.18ZM.9,5.16c-.15-.21-.08-.64.13-.58.54.17,1.49.26,2.08.24,2.29-.04,5-.45,7.56-.96.25-.04.38-.02.5.04.4.17,1.2.71,1.43,1.07.13.19-.44,1.09-.73,1.07-2.56-.19-6.07.17-8.53.79-.19.04-.42.02-.63-.09-.57-.32-1.39-1.01-1.81-1.58ZM6.08,10.45c.25.66.23,1.29.06,1.67-.27.69-.84.92-1.45.77-.48-.13-.76-.49-.9-.99-.17-.9-.46-2.74-1.2-4.07-.13-.24.34-.3.63-.17,1.18.43,2.46,1.67,2.86,2.79Z"/>
      <path d="M29.39,37.85c-.7-.08-1.72-.13-2.5-.15-2.56-.04-8.21.31-11.41.63-.98.1-1.58.19-2.29.38-.23.06-.47.08-.74-.04-.61-.29-1.66-1.19-2.07-1.75-.16-.23-.08-.69.12-.63.9.27,2.25.36,2.91.36,1.68-.02,3.77-.12,5.9-.25v-1.52c0-.46-.12-.79-.33-1.07s-.51-.52-.96-.69c-.18-.06.08-.48.49-.54.94-.12,2.4.02,2.99.27.31.12.37.23.31.58-.08.36-.18,1.15-.18,2v.79c2.33-.19,4.59-.4,6.29-.65.25-.04.39-.04.57.02.43.17,1.43.81,1.64,1.09.18.23-.45,1.21-.74,1.17ZM13.44,24.15c1.02-.15,3.17.15,3.79.46h.02c2.11-.12,4.83-.4,6.92-.77.18-.04.33-.04.49.02.45.17,1.15.63,1.45.94.29.29-.35,1.06-.59,1.04-2.38-.12-5.39.17-8.15.33-.02.98-.04,2.4-.04,3.57,0,.23.18.46.35.46,1.82,0,4.79-.29,6.94-.75.18-.04.35-.04.49,0,.49.15,1.31.63,1.62.94.23.23-.22,1.09-.57,1.07-2.4-.12-7.68.38-9.46.44-.98.04-1.88-.86-1.9-1.71l-.04-2.71c-.02-.82-.12-1.46-.45-1.88-.31-.4-.82-.69-1.37-.88-.25-.08.08-.5.51-.56Z"/>
    </g>
  </g>
</svg>