<?xml version="1.0" encoding="UTF-8"?>
<svg id="_레이어_2" data-name="레이어_2" xmlns="http://www.w3.org/2000/svg" viewBox="0 0 46.93 49.79" fill="black">
  <g id="_레이어_1-2" data-name="레이어_1">
    <g>
      <g>
        <path d="M11.68,15.92h-3.47v6.32h-2.1V5.54h5.57c3.75,0,5.85,1.9,5.85,5.17s-2.1,5.2-5.85,5.2ZM11.48,7.29h-3.27v6.87h3.27c2.62,0,3.82-1.1,3.82-3.45s-1.2-3.42-3.82-3.42Z"/>
        <path d="M29.9,22.24l-1.7-4.67h-7.1l-1.67,4.67h-2.07l6.17-16.7h2.33l6.17,16.7h-2.12ZM24.63,7.82l-2.88,7.97h5.82l-2.9-7.97h-.05Z"/>
        <path d="M11.46,44.24v-16.37h4.88c5.12,0,8.09,2.92,8.09,8.14s-3.04,8.23-8.09,8.23h-4.88ZM13.52,29.63v12.84h2.82c3.75,0,5.93-2.25,5.93-6.47s-2.13-6.37-5.93-6.37h-2.82Z"/>
        <path d="M28.71,29.85c1.3-1.52,3.06-2.28,5.24-2.28s3.95.76,5.24,2.28c1.3,1.54,1.96,3.6,1.96,6.2s-.66,4.66-1.96,6.17c-1.3,1.54-3.06,2.3-5.24,2.3s-3.95-.76-5.24-2.3c-1.3-1.52-1.96-3.58-1.96-6.17s.66-4.66,1.96-6.2ZM37.63,31.13c-.91-1.2-2.13-1.81-3.68-1.81s-2.77.61-3.65,1.81c-.91,1.2-1.35,2.84-1.35,4.93s.44,3.72,1.35,4.93c.88,1.2,2.11,1.81,3.65,1.81s2.77-.61,3.68-1.81c.88-1.2,1.32-2.84,1.32-4.93s-.44-3.73-1.32-4.93Z"/>
      </g>
      <path d="M45.43,1.5v46.79H1.5V1.5h43.93M46.93,0H0v49.79h46.93V0h0Z"/>
    </g>
  </g>
</svg>