<svg width="358" height="62" viewBox="0 0 358 62" fill="none" xmlns="http://www.w3.org/2000/svg">
<path d="M18.0192 14.3198C19.3905 16.7813 20.1098 19.8722 18.9634 22.5473C18.3452 23.9522 17.5921 25.3122 17.4235 26.8408C17.21 28.7066 17.5809 30.6624 18.3564 32.3708C18.4239 32.5057 18.3564 32.663 18.2328 32.7305C18.0979 32.7979 17.9405 32.7305 17.8843 32.6068C17.5247 31.8875 17.2662 31.1232 17.0751 30.3476C16.4457 27.7962 16.7154 25.6719 17.8281 23.3228C17.9068 23.143 18.1091 22.6821 18.1991 22.5135C19.0083 20.7264 18.851 18.6471 18.1991 16.815C17.9518 16.1069 17.6258 15.3876 17.2549 14.7694C16.9627 14.2523 17.7158 13.8028 18.0305 14.3198H18.0192Z" fill="black"/>
<path d="M10.8254 25.6155C10.0162 25.919 9.27436 26.5034 9.117 27.4139C8.75733 29.0099 9.00461 30.6734 9.54411 32.2245C9.62279 32.4493 9.2856 32.5841 9.19568 32.3706C8.42014 30.5497 7.83567 28.077 8.73485 26.1775C9.15072 25.4919 9.74643 25.0423 10.477 24.7051C11.1064 24.4466 11.4661 25.3907 10.8254 25.6155Z" fill="black"/>
<path d="M14.4225 48.185C12.1521 51.2534 7.26283 50.017 6.71209 46.2293C6.32993 43.9251 8.10581 41.576 10.4324 41.3287C14.2315 40.8567 16.693 45.1278 14.4225 48.185ZM13.9842 47.8478C15.9511 45.2851 13.7144 41.5648 10.5336 42.0593C8.62284 42.3178 7.19539 44.2173 7.48763 46.1169C7.92598 49.3089 12.006 50.388 13.9842 47.8478Z" fill="black"/>
<path d="M25.3594 14.151C26.2923 15.702 27.0791 17.5678 26.5508 19.3887C26.3822 19.9844 26.045 20.5801 25.5168 20.9735C25.4044 21.0522 25.247 21.0297 25.1683 20.9285C25.0897 20.8161 25.1121 20.67 25.2133 20.5801C26.9442 18.9503 25.8427 16.2416 24.7075 14.5781C24.4265 14.1397 25.0784 13.7126 25.3594 14.151Z" fill="black"/>
<path d="M18.0195 61.5378C8.21849 61.5378 0.238281 47.7916 0.238281 30.9095C0.238281 14.0274 8.21849 0.27002 18.0195 0.27002C27.8206 0.27002 35.8008 14.0162 35.8008 30.9095C35.8008 47.8028 27.8206 61.549 18.0195 61.549V61.5378ZM18.0195 1.0006C8.62312 1.0006 0.968864 14.4208 0.968864 30.9095C0.968864 47.3982 8.61188 60.8072 18.0195 60.8072C27.4272 60.8072 35.0702 47.3982 35.0702 30.9095C35.0702 14.4208 27.4272 1.0006 18.0195 1.0006Z" fill="black"/>
<path d="M10.635 14.4319C11.714 16.4101 13.681 19.5572 11.3206 21.3556C10.3877 21.9625 9.19631 21.8951 8.15101 21.9401C6.76853 21.9401 5.35232 21.8501 3.98107 21.704L2.94702 21.5916C2.39627 21.468 1.35098 21.6703 1.39594 20.8386C1.42966 20.4901 1.78933 20.2429 2.12652 20.344C2.78966 20.5126 3.45281 20.6587 4.12719 20.8048C6.10538 21.1645 8.18473 21.4792 10.1854 21.232C12.557 20.7824 12.0287 18.1523 11.0733 16.5787C10.7474 15.983 10.3877 15.3985 9.99433 14.859C9.69086 14.4207 10.3765 13.9711 10.6462 14.4432L10.635 14.4319Z" fill="black"/>
<path d="M25.8758 32.6404C24.9429 31.0893 24.1449 28.0995 24.8193 26.3798C25.8421 24.1094 28.7307 24.6152 30.7651 24.6152L34.9126 24.7388C35.1486 24.7388 35.3284 24.9411 35.3284 25.1772C35.3284 25.4132 35.1261 25.6043 34.8901 25.593L30.7426 25.3907C29.0005 25.3907 26.3591 24.7388 25.415 26.6496C25.1452 27.234 25.1902 27.8972 25.2239 28.5379C25.3251 29.8529 25.6735 31.2241 26.3142 32.3594C26.5165 32.6628 26.0669 32.9551 25.8646 32.6516L25.8758 32.6404Z" fill="black"/>
<path d="M1.22807 37.9118C4.77982 36.2371 8.61257 35.3154 12.4678 34.7534C14.4123 34.45 16.368 34.4162 18.3237 34.5848C21.0212 34.8209 23.6626 35.2817 24.3032 38.3614C24.5955 39.8225 24.6179 41.3736 24.2807 42.8235C24.0672 43.7789 23.73 44.6781 23.4715 45.6222C22.37 49.6011 21.2011 54.0858 23.1118 57.9747C23.3141 58.3681 23.5726 58.7278 23.8536 58.9413C24.0784 59.0987 24.1234 59.4134 23.9548 59.6382C23.0556 60.616 21.8417 57.615 21.7069 56.9968C20.5941 53.1304 21.6394 49.129 22.7184 45.4087C23.3591 43.408 24.0335 41.3399 23.6626 39.2156C23.5839 38.5637 23.4378 37.8668 23.0893 37.3048C22.1227 35.6526 19.9984 35.5627 18.2787 35.3828C14.4797 35.0569 10.6807 35.7987 7.05024 36.8553C5.25189 37.3948 3.41981 38.0804 1.77881 38.9571C1.09319 39.3168 0.542442 38.2939 1.23931 37.923L1.22807 37.9118Z" fill="black"/>
<path d="M12.6016 35.0345C12.7365 35.012 12.7477 35.0795 12.7927 35.1244C13.9391 36.6867 15.4003 38.058 17.075 39.0358C18.8284 40.1036 20.8628 40.4183 22.8859 40.5644C24.9203 40.7106 26.9772 40.6431 28.9329 40.1261C30.8437 39.6203 32.9118 39.0696 34.564 37.9793C34.7326 37.8557 34.9686 37.8894 35.0923 38.058C35.2159 38.2266 35.1597 38.4626 34.9911 38.575C34.0582 39.182 33.0691 39.5304 32.08 39.8563C31.0909 40.1711 30.0906 40.452 29.0678 40.6768C25.9993 41.3849 22.8185 41.2388 19.75 40.6431C16.7715 39.98 14.1639 38.0917 12.3206 35.7089L12.197 35.5515C12.0059 35.3717 12.3206 35.0682 12.5229 35.0457L12.6016 35.0345Z" fill="black"/>
<path d="M10.3536 57.7614C12.8151 55.4235 15.9847 53.9736 19.2554 53.243C21.6944 52.681 24.2908 52.4562 26.7411 53.0632C27.5616 53.2542 28.3708 53.5015 29.1576 53.8162C29.3375 53.8837 29.4161 54.086 29.3487 54.2546C29.2813 54.4344 29.0677 54.5243 28.8879 54.4344C28.1573 54.0972 27.393 53.8275 26.6062 53.6251C22.8521 52.6585 18.8396 53.6364 15.3665 55.1875C13.7592 55.9743 12.2194 57.0645 10.9942 58.3458C10.6008 58.7842 9.92645 58.1772 10.3536 57.7501V57.7614Z" fill="black"/>
<path d="M6.85887 7.83438C12.681 11.4199 20.2341 11.8919 26.5059 9.19439L27.8097 8.56496C28.2368 8.32893 28.6527 8.08165 29.0686 7.84562C29.2821 7.71074 29.5631 7.76694 29.698 7.99174C29.8329 8.21653 29.743 8.49752 29.5069 8.60992L28.1469 9.26183C22.6732 11.6784 16.3452 12.0156 10.6354 10.1835L9.23045 9.68894L7.84797 9.10447L6.4992 8.44132C6.08333 8.21653 6.42052 7.58711 6.84763 7.84562L6.85887 7.83438Z" fill="black"/>
<path d="M12.4897 10.1946C13.6587 9.76753 14.6028 8.76719 15.4795 7.87925C16.2213 7.06999 17.3565 5.90106 17.5813 4.9794L17.5476 3.38336C17.5701 2.7427 18.503 2.75394 18.503 3.3946L18.4468 4.99064V4.95692C18.4468 5.39527 18.8852 5.9685 19.2561 6.46305C19.6719 6.96884 20.1103 7.46338 20.5599 7.93545C21.4478 8.80091 22.3695 9.86869 23.5946 10.1946C23.8756 10.2284 23.8306 10.6667 23.5384 10.633C22.1447 10.3632 21.1106 9.29546 20.0878 8.39628C19.346 7.68818 18.6042 6.96884 18.0197 6.11462C17.8174 5.81114 17.6151 5.45147 17.5701 4.99064V4.96816L17.5364 3.37212H18.4918L18.4356 4.95692V4.9794C18.3681 5.46271 18.1546 5.76619 17.9635 6.06966C16.9856 7.4409 15.7155 8.57612 14.4005 9.62141C14.1307 9.81249 12.4785 10.9927 12.3212 10.4419C12.2874 10.3183 12.3549 10.2059 12.4785 10.1722L12.4897 10.1946Z" fill="black"/>
<path d="M79.7331 24.7649C79.9262 24.7649 80.2685 24.879 80.7513 25.0984C80.9444 24.9843 81.1726 24.9229 81.436 24.9229C83.2617 25.5285 84.1745 26.5028 84.1745 27.837V28.3461L83.6654 28.6972H83.3144C81.4711 27.6702 80.3914 27.1524 80.0667 27.1524C79.461 27.1524 79.0572 27.3806 78.8729 27.837V28.1706C78.8729 28.6007 80.1808 28.9957 82.8053 29.3643C84.0604 30.3825 84.6836 31.0145 84.6836 31.2427C85.026 31.8308 85.1927 32.4101 85.1927 32.9631V33.1211C85.1927 34.3412 84.8504 35.1399 84.1745 35.5261L83.3144 36.3688L82.4542 36.2108C82.4542 36.5004 81.9451 36.7813 80.9269 37.0534C78.3024 36.3249 76.9945 35.649 76.9945 35.0083C76.424 34.6572 76.1343 34.2534 76.1343 33.797L77.3456 32.2697H77.5036C77.7143 32.2697 78.3989 32.8929 79.5576 34.1481C79.8033 34.2622 80.3124 34.3763 81.1024 34.4816C82.2347 34.1393 82.8053 33.6829 82.8053 33.1123C82.8053 32.3048 81.3833 31.7957 78.5394 31.585C77.8372 31.585 76.9858 30.9004 75.9763 29.5311C75.9763 29.1185 75.9149 28.6094 75.8008 28.0038C76.3011 26.4063 76.9331 25.5987 77.6792 25.5987C77.6792 25.2915 78.3638 25.0107 79.7331 24.7561V24.7649Z" fill="#221E1F"/>
<path d="M106.328 24.4141H106.838C107.961 25.1602 109.102 27.7759 110.261 32.2787C110.945 33.648 111.279 34.6136 111.279 35.1753C111.147 36.2023 110.919 36.7202 110.594 36.7202H110.085C108.892 36.2111 108.102 35.7546 107.698 35.3509L107.364 34.8418C104.968 34.8418 103.765 35.2982 103.765 36.2111C103.765 36.2901 103.37 36.6938 102.572 37.4048H102.396C101.711 37.001 101.378 36.4919 101.378 35.86V35.6844C101.378 34.3941 102.063 31.9452 103.432 28.3464C103.774 27.6442 104.117 26.6787 104.45 25.4498C105.293 24.7564 105.916 24.4141 106.328 24.4141ZM105.31 31.085V31.243C105.31 31.9276 105.653 32.2787 106.328 32.2787C106.899 32.0768 107.189 31.796 107.189 31.4185C106.838 30.4706 106.557 29.8474 106.328 29.5401C105.644 29.8298 105.31 30.3389 105.31 31.085Z" fill="#221E1F"/>
<path d="M128.474 24.7649H128.825C129.528 24.7649 130.379 25.5636 131.388 27.1524C131.941 28.0477 132.45 29.0747 132.916 30.2245C133.416 30.7951 133.706 31.0847 133.776 31.0847C134.039 31.0847 134.206 30.3386 134.285 28.8552C134.066 28.4778 133.951 28.1442 133.951 27.837V25.6075C133.951 25.4583 134.232 25.1774 134.794 24.7649H135.321C135.961 24.7649 136.365 25.9586 136.514 28.3461C136.514 28.4602 136.453 28.5217 136.339 28.5217L136.672 34.1569C136.523 35.7456 136.181 36.5443 135.654 36.5443H135.145C132.977 35.1048 131.897 33.8496 131.897 32.7876C131.617 32.7876 131.283 32.1644 130.879 30.9092C130.502 30.6897 130.221 30.5756 130.019 30.5756C130.019 30.7951 129.905 30.9092 129.668 30.9092L129.844 32.612V32.7876L129.334 33.6478L129.844 34.4904V35.6841C129.844 36.0352 129.615 36.2108 129.159 36.2108C128.817 35.9826 128.422 35.8597 127.965 35.8597V35.6841C127.965 35.4296 128.027 35.2102 128.141 35.0171C127.684 34.2797 127.456 33.5951 127.456 32.9631C127.456 32.8402 127.517 32.6647 127.632 32.454L127.456 30.9092C127.456 30.4352 127.517 29.812 127.632 29.0308C127.517 28.39 127.456 27.4772 127.456 26.2922C127.965 25.274 128.307 24.7649 128.474 24.7649Z" fill="#221E1F"/>
<path d="M156.783 24.7649C156.976 24.7649 157.318 24.879 157.801 25.0984C157.994 24.9843 158.222 24.9229 158.486 24.9229C160.311 25.5285 161.224 26.5028 161.224 27.837V28.3461L160.715 28.6972H160.364C158.521 27.6702 157.441 27.1524 157.116 27.1524C156.511 27.1524 156.107 27.3806 155.923 27.837V28.1706C155.923 28.6007 157.231 28.9957 159.855 29.3643C161.11 30.3825 161.733 31.0145 161.733 31.2427C162.076 31.8308 162.243 32.4101 162.243 32.9631V33.1211C162.243 34.3412 161.9 35.1399 161.224 35.5261L160.364 36.3688L159.504 36.2108C159.504 36.5004 158.995 36.7813 157.977 37.0534C155.352 36.3249 154.044 35.649 154.044 35.0083C153.474 34.6572 153.184 34.2534 153.184 33.797L154.395 32.2697H154.553C154.764 32.2697 155.449 32.8929 156.607 34.1481C156.853 34.2622 157.362 34.3763 158.152 34.4816C159.285 34.1393 159.855 33.6829 159.855 33.1123C159.855 32.3048 158.433 31.7957 155.589 31.585C154.887 31.585 154.036 30.9004 153.026 29.5311C153.026 29.1185 152.965 28.6094 152.851 28.0038C153.351 26.4063 153.983 25.5987 154.729 25.5987C154.729 25.2915 155.414 25.0107 156.783 24.7561V24.7649Z" fill="#221E1F"/>
<path d="M179.964 25.2742C180.306 25.2742 180.587 25.792 180.806 26.819V28.6974L180.631 29.7156C180.745 29.9438 180.806 30.1106 180.806 30.2247L180.631 30.9093L180.806 31.9275C180.692 32.2786 180.578 32.4542 180.473 32.4542C181.087 33.8147 181.886 34.4906 182.86 34.4906H183.721C184.396 34.4906 184.739 34.1483 184.739 33.4724V30.9093C184.739 30.804 184.853 30.3476 185.072 29.5401V29.2065C185.072 28.8203 185.02 28.5394 184.914 28.3463L185.072 27.3281C184.967 26.7312 184.914 26.3801 184.914 26.2924C185.151 25.6077 185.599 25.2742 186.284 25.2742C186.731 25.5287 187.074 26.7839 187.302 29.031C187.038 29.031 186.872 29.3206 186.793 29.8912C187.109 30.4529 187.337 31.6467 187.477 33.4724C187.477 34.8417 186.45 35.8687 184.405 36.5445C184.405 36.7025 183.659 36.9307 182.176 37.2292C181.438 36.6586 180.42 36.0881 179.104 35.5263C178.647 32.9282 178.419 31.3921 178.419 30.9093C178.533 29.3645 178.595 28.2761 178.595 27.6617C178.595 27.5827 178.533 27.2403 178.419 26.6435C178.717 25.7306 179.226 25.2742 179.964 25.2742Z" fill="#221E1F"/>
<path d="M205.199 24.7649C206.103 25.195 206.551 25.7655 206.551 26.4677V28.1706C206.551 28.8552 207.069 29.2063 208.096 29.2063C208.561 29.2063 209.017 29.259 209.465 29.3643C210.264 29.1098 210.659 28.6007 210.659 27.837C210.422 27.4596 210.308 27.1173 210.308 26.8188V26.4677C210.878 25.3354 211.282 24.7649 211.519 24.7649C212.651 25.7392 213.222 26.6521 213.222 27.4859C213.108 28.6709 213.046 29.3555 213.046 29.5399C213.16 31.19 213.222 32.1029 213.222 32.2784L213.046 33.4722C213.16 33.6653 213.222 33.8935 213.222 34.1568C212.721 36.0879 212.265 37.0534 211.853 37.0534C210.94 37.0534 210.483 36.4829 210.483 35.3506L210.659 33.6477C210.659 32.7788 210.088 32.2609 208.956 32.1029C207.587 32.454 206.902 32.9631 206.902 33.6477C206.788 33.6477 206.726 33.7004 206.726 33.8057C206.841 34.4202 206.902 34.938 206.902 35.3506C206.56 36.7199 205.875 37.4045 204.848 37.4045C204.69 37.4045 204.348 37.0622 203.83 36.3688C203.83 35.5612 203.768 34.0252 203.654 31.7606C203.768 28.8025 203.83 26.8013 203.83 25.7743C204.506 25.0896 204.962 24.7561 205.199 24.7561V24.7649Z" fill="#221E1F"/>
<path d="M235.386 24.7649H235.895C236.694 25.2389 237.089 25.5812 237.089 25.7831L236.913 26.6433L237.773 29.5399H238.282C238.668 29.5399 238.949 28.3461 239.142 25.9586C239.573 25.3793 240.143 25.0282 240.845 24.9229C241.302 25.4057 241.53 25.8621 241.53 26.2922C241.53 27.126 241.188 27.9775 240.494 28.8552C240.845 29.4258 241.021 29.8822 241.021 30.2245C240.266 32.9719 239.695 34.508 239.3 34.8415C239.529 34.8766 239.652 34.9907 239.652 35.175V35.3506C239.476 35.9211 238.73 36.2108 237.422 36.2108C237.115 36.2108 236.72 35.412 236.228 33.8058L235.719 33.4722C235.421 33.4722 235.026 34.271 234.526 35.8597L233.665 36.3688H233.507C232.594 36.3688 231.91 35.4033 231.453 33.4722C231.278 33.4722 231.05 33.244 230.769 32.7876C230.795 32.217 230.909 31.9274 231.102 31.9274C230.54 31.1549 230.26 30.4176 230.26 29.7154C230.479 29.3468 230.593 29.0659 230.593 28.8552C229.988 28.8552 229.584 28.1794 229.399 26.8188V26.6433C229.628 25.4934 229.909 24.9229 230.26 24.9229H230.418C230.584 24.9229 230.76 25.1511 230.944 25.6075L231.278 25.4495C231.629 25.4495 232.024 26.6433 232.472 29.0308C232.884 29.8295 233.165 30.2245 233.332 30.2245C233.551 29.9436 233.894 28.6972 234.35 26.4677C234.78 25.3442 235.122 24.7824 235.386 24.7649Z" fill="#221E1F"/>
<path d="M262.657 24.4141H263.166C264.289 25.1602 265.43 27.7759 266.589 32.2787C267.274 33.648 267.607 34.6136 267.607 35.1753C267.475 36.2023 267.247 36.7202 266.922 36.7202H266.413C265.22 36.2111 264.43 35.7546 264.026 35.3509L263.692 34.8418C261.296 34.8418 260.094 35.2982 260.094 36.2111C260.094 36.2901 259.699 36.6938 258.9 37.4048H258.724C258.04 37.001 257.706 36.4919 257.706 35.86V35.6844C257.706 34.3941 258.391 31.9452 259.76 28.3464C260.102 27.6442 260.445 26.6787 260.778 25.4498C261.621 24.7564 262.244 24.4141 262.657 24.4141ZM261.638 31.085V31.243C261.638 31.9276 261.981 32.2787 262.657 32.2787C263.227 32.0768 263.517 31.796 263.517 31.4185C263.166 30.4706 262.885 29.8474 262.657 29.5401C261.972 29.8298 261.638 30.3389 261.638 31.085Z" fill="#221E1F"/>
<path d="M297.759 29.6633C297.82 29.6633 298.092 29.7686 298.575 29.9793L298.988 29.7686C299.391 30.2163 299.602 30.4533 299.602 30.4796C299.602 30.7517 298.988 31.0589 297.759 31.4012C297.557 31.4012 297.452 31.4715 297.452 31.6031V32.4194C297.311 32.9022 297.241 33.1743 297.241 33.2358V33.4376C297.381 34.1135 297.452 34.4909 297.452 34.5612V35.8953C297.452 36.4396 297.179 36.7117 296.635 36.7117H296.53C296.214 36.7117 296.012 36.027 295.915 34.6665C295.986 34.5348 296.021 34.4383 296.021 34.3593L295.915 33.8414L296.021 33.6395C295.933 33.0339 295.863 32.6564 295.81 32.516L295.915 31.9016V31.7962C295.915 31.6997 295.714 31.4978 295.301 31.173L294.59 31.2784C294.186 30.8658 293.976 30.5235 293.976 30.2602C294.177 29.9178 294.414 29.7423 294.687 29.7423C294.888 29.7423 294.994 29.7774 294.994 29.8476L296.021 29.7423H297.144L297.759 29.637V29.6633Z" fill="#221E1F"/>
<path d="M303.798 29.6633C304.017 29.8037 304.193 29.874 304.316 29.874L305.536 29.7686C306.212 30.0495 306.554 30.2514 306.563 30.3918V30.5937C306.089 31.1204 305.852 31.4364 305.852 31.5154L304.93 31.41C304.886 31.41 304.676 31.4451 304.316 31.5154C304.087 31.3749 303.886 31.3047 303.701 31.3047H303.605C303.377 31.3047 303.245 31.647 303.192 32.3229L303.499 32.5336H303.912C304.254 32.5336 304.763 32.4984 305.448 32.4282L305.755 32.8408V33.3586L305.141 34.0696L304.421 33.9643H304.017C303.596 33.9643 303.289 34.2013 303.096 34.6753C303.096 35.1493 303.807 35.3863 305.237 35.3863C306.264 35.3863 306.773 35.5267 306.773 35.7988V36.422C306.773 36.501 306.501 36.6678 305.957 36.9311C305.404 36.9311 304.965 36.896 304.632 36.8346C304.202 36.896 303.728 36.9311 303.201 36.9311C302.973 36.7994 302.806 36.7292 302.683 36.7292L302.165 36.8346C302.165 36.738 301.998 36.5712 301.656 36.3167C301.718 35.5179 301.753 34.9298 301.753 34.5699V32.9373L301.656 32.4195C301.761 32.4195 301.902 32.279 302.069 32.0069C301.761 31.8752 301.586 31.7436 301.551 31.5944C301.551 30.3655 301.99 29.7511 302.876 29.7511C303.122 29.7511 303.429 29.716 303.798 29.6458V29.6633Z" fill="#221E1F"/>
<path d="M311.671 29.3559H311.978C312.654 29.8036 313.339 31.366 314.023 34.0607C314.427 34.877 314.638 35.4563 314.638 35.7987C314.559 36.4131 314.418 36.7203 314.225 36.7203H313.918C313.207 36.4131 312.733 36.141 312.487 35.904L312.285 35.5968C310.846 35.5968 310.135 35.8689 310.135 36.4131C310.135 36.457 309.898 36.7027 309.424 37.1241H309.319C308.915 36.8783 308.704 36.5711 308.704 36.2024V36.0971C308.704 35.3247 309.117 33.8588 309.933 31.6995C310.135 31.2782 310.337 30.6989 310.547 29.9616C311.048 29.5491 311.425 29.3472 311.671 29.3472V29.3559ZM311.065 33.3497V33.4463C311.065 33.8588 311.267 34.0695 311.68 34.0695C312.022 33.9554 312.198 33.7798 312.198 33.5516C311.987 32.9811 311.82 32.6124 311.68 32.4281C311.276 32.5949 311.065 32.9108 311.065 33.3497Z" fill="#221E1F"/>
<path d="M322.748 29.5669C323.292 29.8214 323.555 30.1638 323.555 30.5851V31.6033C323.555 32.0158 323.863 32.2265 324.477 32.2265C324.758 32.2265 325.03 32.2616 325.293 32.323C325.767 32.1738 326.004 31.8666 326.004 31.4102C325.864 31.182 325.794 30.9801 325.794 30.8045V30.5939C326.136 29.9092 326.382 29.5757 326.513 29.5757C327.189 30.1638 327.532 30.708 327.532 31.2083C327.461 31.9193 327.426 32.323 327.426 32.4371C327.496 33.4202 327.532 33.9644 327.532 34.0785L327.426 34.7895C327.496 34.9036 327.532 35.0441 327.532 35.2021C327.233 36.3607 326.961 36.94 326.715 36.94C326.171 36.94 325.899 36.5977 325.899 35.9218L326.004 34.9036C326.004 34.3858 325.662 34.0785 324.986 33.982C324.17 34.1927 323.757 34.4999 323.757 34.9036C323.687 34.9036 323.652 34.9387 323.652 35.0002C323.722 35.3688 323.757 35.6761 323.757 35.9218C323.555 36.7381 323.143 37.1507 322.528 37.1507C322.432 37.1507 322.23 36.94 321.914 36.5275C321.914 36.0447 321.879 35.1319 321.809 33.7713C321.879 31.9983 321.914 30.8045 321.914 30.1901C322.318 29.7863 322.59 29.5757 322.73 29.5757L322.748 29.5669Z" fill="#221E1F"/>
<path d="M332.271 29.4614H332.982C333.482 29.4614 333.921 29.6984 334.307 30.1724C335.194 30.7166 335.641 31.7085 335.641 33.1392V34.1662C335.527 34.2978 335.317 34.7806 335.027 35.5969C334.869 35.5969 334.667 35.869 334.412 36.4132C333.526 36.7468 333.017 36.9223 332.876 36.9223H332.569C331.542 36.6765 331.033 36.5098 331.033 36.4132C330.287 35.7988 329.91 34.9825 329.91 33.9555C329.752 33.9555 329.611 33.4113 329.497 32.3141C330.068 30.5411 330.822 29.6545 331.744 29.6545C331.744 29.5404 331.92 29.4702 332.262 29.4526L332.271 29.4614ZM331.042 33.3499C331.042 34.3944 331.691 35.1405 332.982 35.5969H333.491C333.596 35.5969 333.693 35.4916 333.807 35.2897V34.3681C334.009 33.6132 334.114 33.1743 334.114 33.0426C333.781 31.6734 333.271 30.9975 332.578 30.9975H332.165L331.244 31.8138C331.244 32.0245 331.174 32.5423 331.042 33.3499Z" fill="#221E1F"/>
<path d="M338.513 29.874C338.715 29.874 338.882 30.1812 339.023 30.7957V31.9192L338.917 32.5336C338.987 32.6653 339.023 32.7706 339.023 32.8408L338.917 33.2534L339.023 33.8678C338.952 34.0785 338.882 34.1838 338.821 34.1838C339.189 35.0001 339.663 35.4039 340.251 35.4039H340.769C341.173 35.4039 341.384 35.202 341.384 34.7982V33.2622C341.384 33.2007 341.454 32.9286 341.586 32.4458V32.244C341.586 32.0157 341.55 31.8402 341.489 31.7261L341.586 31.1117C341.524 30.7518 341.489 30.5499 341.489 30.4885C341.629 30.0847 341.902 29.8828 342.305 29.8828C342.569 30.0408 342.779 30.7869 342.92 32.1298C342.762 32.1298 342.665 32.3054 342.613 32.6477C342.797 32.9813 342.937 33.701 343.025 34.7894C343.025 35.6058 342.411 36.2202 341.182 36.6327C341.182 36.7293 340.734 36.8609 339.848 37.0453C339.409 36.7029 338.794 36.3606 338.004 36.0271C337.732 34.4735 337.592 33.5518 337.592 33.2622C337.662 32.3317 337.697 31.691 337.697 31.3223C337.697 31.2697 337.662 31.0678 337.592 30.7079C337.767 30.1637 338.075 29.8916 338.513 29.8916V29.874Z" fill="#221E1F"/>
<path d="M347.316 29.5669C347.43 29.5669 347.641 29.6371 347.931 29.7688C348.045 29.6986 348.185 29.6634 348.343 29.6634C349.432 30.0233 349.985 30.6114 349.985 31.4102V31.7174L349.677 31.9281H349.467C348.361 31.3136 347.711 31.0064 347.527 31.0064C347.158 31.0064 346.921 31.1469 346.807 31.419V31.6208C346.807 31.8754 347.588 32.1124 349.16 32.3318C349.906 32.9462 350.283 33.3149 350.283 33.4553C350.485 33.8064 350.59 34.1488 350.59 34.4823V34.5789C350.59 35.3074 350.388 35.7902 349.976 36.0184L349.458 36.5275L348.94 36.4309C348.94 36.5977 348.633 36.7732 348.027 36.94C346.456 36.5099 345.675 36.0974 345.675 35.7199C345.333 35.5093 345.157 35.2723 345.157 35.0002L345.877 34.0873H345.973C346.105 34.0873 346.509 34.4648 347.202 35.2109C347.343 35.2811 347.659 35.3513 348.124 35.4127C348.8 35.2108 349.142 34.9387 349.142 34.5964C349.142 34.1137 348.291 33.8064 346.588 33.6836C346.166 33.6836 345.657 33.271 345.052 32.4547C345.052 32.2089 345.017 31.9017 344.946 31.5418C345.245 30.5851 345.622 30.1023 346.07 30.1023C346.07 29.918 346.482 29.7512 347.299 29.5932L347.316 29.5669Z" fill="#221E1F"/>
<path d="M354.786 29.6633C355.006 29.8037 355.181 29.874 355.304 29.874L356.524 29.7686C357.2 30.0495 357.542 30.2514 357.551 30.3918V30.5937C357.077 31.1204 356.84 31.4364 356.84 31.5154L355.918 31.41C355.875 31.41 355.664 31.4451 355.304 31.5154C355.076 31.3749 354.874 31.3047 354.69 31.3047H354.593C354.365 31.3047 354.233 31.647 354.18 32.3229L354.488 32.5336H354.9C355.243 32.5336 355.752 32.4984 356.436 32.4282L356.744 32.8408V33.3586L356.129 34.0696L355.409 33.9643H355.006C354.584 33.9643 354.277 34.2013 354.084 34.6753C354.084 35.1493 354.795 35.3863 356.226 35.3863C357.253 35.3863 357.762 35.5267 357.762 35.7988V36.422C357.762 36.501 357.49 36.6678 356.945 36.9311C356.392 36.9311 355.954 36.896 355.62 36.8346C355.19 36.896 354.716 36.9311 354.189 36.9311C353.961 36.7994 353.794 36.7292 353.671 36.7292L353.154 36.8346C353.154 36.738 352.987 36.5712 352.644 36.3167C352.706 35.5179 352.741 34.9298 352.741 34.5699V32.9373L352.644 32.4195C352.75 32.4195 352.89 32.279 353.057 32.0069C352.75 31.8752 352.574 31.7436 352.539 31.5944C352.539 30.3655 352.978 29.7511 353.864 29.7511C354.11 29.7511 354.417 29.716 354.786 29.6458V29.6633Z" fill="#221E1F"/>
</svg>
