<svg width="81" height="140" viewBox="0 0 81 140" fill="none" xmlns="http://www.w3.org/2000/svg">
<g clip-path="url(#clip0_575_1089)">
<path d="M40.509 32.3854C43.6453 37.9996 45.2899 45.0112 42.6672 51.1176C41.2549 54.3014 39.5247 57.4062 39.1396 60.8999C38.6444 65.1531 39.5003 69.6007 41.2732 73.4832C41.42 73.787 41.2916 74.1516 40.9859 74.2974C40.6863 74.4372 40.3256 74.3156 40.1789 74.0179C39.3597 72.3774 38.7544 70.6518 38.3264 68.8776C36.8897 63.0812 37.4889 58.2447 40.0444 52.8857C40.2278 52.4786 40.6924 51.4335 40.882 51.0447C42.7405 46.9616 42.3859 42.2406 40.9003 38.0846C40.3378 36.4623 39.5859 34.8401 38.73 33.4183C38.0636 32.2517 39.7876 31.2188 40.5029 32.3914L40.509 32.3854Z" fill="black"/>
<path d="M24.0331 58.0743C22.1807 58.7609 20.4749 60.1037 20.1326 62.1756C19.3072 65.803 19.8697 69.5883 21.1169 73.1306C21.3064 73.641 20.53 73.9569 20.3099 73.4526C18.5369 69.3027 17.198 63.6824 19.2522 59.3564C20.2121 57.7827 21.5754 56.768 23.2383 55.9903C24.6811 55.4009 25.5126 57.5457 24.0392 58.0682L24.0331 58.0743Z" fill="black"/>
<path d="M32.2617 109.441C27.0589 116.434 15.877 113.615 14.6176 104.999C13.7311 99.7555 17.8089 94.3965 23.1339 93.8314C31.8276 92.7681 37.4583 102.478 32.2678 109.441H32.2617ZM31.259 108.693C35.7648 102.848 30.6476 94.3965 23.3663 95.5266C19.0011 96.1038 15.7303 100.43 16.3906 104.756C17.381 112.011 26.7288 114.484 31.259 108.699V108.693Z" fill="black"/>
<path d="M57.3093 31.9841C59.4491 35.5142 61.2404 39.7492 60.0421 43.9051C59.6569 45.2722 58.8866 46.609 57.6883 47.5082C57.4377 47.6966 57.0831 47.6479 56.8936 47.3988C56.704 47.1558 56.7529 46.8034 56.9914 46.615C60.9469 42.9026 58.4342 36.7477 55.8176 32.9562C55.1634 31.9659 56.6551 30.9876 57.3093 31.9841Z" fill="black"/>
<path d="M40.5031 139.62C18.1698 139.62 0 108.444 0 70.1232C0 31.802 18.1698 0.620117 40.5031 0.620117C62.8363 0.620117 81.0061 31.7959 81.0061 70.1232C81.0061 108.45 62.8363 139.626 40.5031 139.626V139.62ZM40.5031 1.83531C18.8423 1.83531 1.22273 32.4704 1.22273 70.1232C1.22273 107.776 18.8423 138.411 40.5031 138.411C62.1638 138.411 79.7834 107.776 79.7834 70.1232C79.7834 32.4704 62.1577 1.83531 40.5031 1.83531Z" fill="black"/>
<path d="M23.5739 32.6163C26.0377 37.1246 30.5496 44.2882 25.1573 48.3834C23.0114 49.7566 20.303 49.6168 17.8943 49.708C14.7396 49.7323 11.4749 49.5014 8.33248 49.1793L5.95427 48.9302C4.70097 48.6386 2.30441 49.1064 2.39611 47.2107C2.47559 46.4087 3.28871 45.8619 4.06514 46.0806C5.58133 46.4755 7.10975 46.8036 8.63817 47.1196C13.1745 47.9277 17.9187 48.6507 22.504 48.0796C27.9451 47.0467 26.7346 41.0801 24.5398 37.5013C23.7878 36.1585 22.9686 34.8097 22.0699 33.5763C21.3668 32.5676 22.938 31.553 23.5739 32.6163Z" fill="black"/>
<path d="M58.4838 74.0605C56.344 70.5365 54.5283 63.7192 56.075 59.8002C58.4166 54.6235 65.0377 55.7719 69.6841 55.7962L79.1969 56.0635C79.7288 56.0757 80.1507 56.5192 80.1384 57.0539C80.1262 57.5946 79.6677 58.0139 79.1236 57.9896L69.6351 57.54C65.6551 57.5643 59.5904 56.0574 57.4384 60.4017C56.8148 61.7263 56.9126 63.2392 57.0043 64.6914C57.2244 67.6868 58.0253 70.8038 59.5109 73.3982C59.9633 74.0788 58.9301 74.7532 58.4838 74.0605Z" fill="black"/>
<path d="M2.04199 86.0603C10.1793 82.2445 18.9463 80.1483 27.7866 78.8663C32.2313 78.1737 36.7309 78.1007 41.1939 78.4774C47.3626 79.0243 53.4151 80.0694 54.8763 87.0871C55.5549 90.4228 55.5977 93.9347 54.8152 97.2401C54.3383 99.4213 53.5435 101.463 52.9566 103.602C50.4378 112.655 47.76 122.875 52.1252 131.721C52.5898 132.602 53.1706 133.441 53.8186 133.915C54.3322 134.279 54.4422 134.996 54.0632 135.494C51.9907 137.724 49.2273 130.883 48.9155 129.473C46.3783 120.681 48.7749 111.567 51.2326 103.097C52.7121 98.5464 54.2527 93.8314 53.3907 89.0071C53.2073 87.5246 52.8649 85.9266 52.0701 84.6689C49.8448 80.9018 44.9844 80.7013 41.0411 80.282C32.3413 79.5286 23.6416 81.242 15.3331 83.636C11.2247 84.8633 7.02463 86.437 3.27083 88.4117C1.71185 89.2198 0.446319 86.8987 2.04199 86.0603Z" fill="black"/>
<path d="M28.0857 79.5289C28.3914 79.4743 28.4281 79.6201 28.5137 79.7355C31.1365 83.3021 34.4745 86.4009 38.3139 88.6368C42.3245 91.0551 47.0014 91.7781 51.6173 92.1123C56.2759 92.4404 60.9773 92.2824 65.4769 91.1158C69.8666 89.9796 74.5924 88.6976 78.3646 86.2307C78.7436 85.9452 79.2938 86.0302 79.5689 86.4191C79.8379 86.808 79.734 87.3426 79.3366 87.5978C77.203 88.971 74.9409 89.773 72.6727 90.5265C70.3984 91.2495 68.1058 91.8814 65.7826 92.4039C58.7458 94.0201 51.4644 93.692 44.4337 92.3189C37.6231 90.812 31.6378 86.5224 27.4132 81.0783L27.1381 80.7138C26.7102 80.3067 27.4255 79.6019 27.8962 79.5654L28.0857 79.535V79.5289Z" fill="black"/>
<path d="M22.9449 131.254C28.5817 125.919 35.8325 122.644 43.334 120.973C48.9219 119.691 54.8522 119.175 60.4706 120.566C62.3475 120.991 64.1938 121.562 65.9974 122.279C66.4009 122.437 66.5904 122.893 66.4314 123.288C66.2664 123.701 65.7773 123.896 65.3738 123.701C63.7047 122.936 61.9501 122.334 60.1527 121.872C51.5447 119.667 42.3742 121.909 34.4203 125.433C30.7337 127.219 27.2123 129.698 24.4 132.621C23.489 133.629 21.9667 132.232 22.9449 131.254Z" fill="black"/>
<path d="M14.9297 17.6207C28.2759 25.7807 45.5714 26.8501 59.9325 20.7073L62.9282 19.2734C63.8941 18.7387 64.854 18.1797 65.8016 17.6268C66.2846 17.3108 66.9448 17.4566 67.2383 17.9549C67.5379 18.4592 67.3361 19.1154 66.8042 19.3706L63.6924 20.8531C51.1471 26.3519 36.6516 27.1174 23.5989 22.9554L20.377 21.8192L17.2163 20.5007L14.1411 18.9878C13.1812 18.4835 13.9699 17.0495 14.9297 17.6268V17.6207Z" fill="black"/>
<path d="M27.8352 22.9917C30.5008 22.0195 32.6834 19.7289 34.6886 17.7299C36.4005 15.8828 38.9743 13.2337 39.5123 11.1192C39.5123 11.1192 39.439 7.4858 39.4451 7.47972C39.4818 6.02149 41.646 6.05187 41.6338 7.51618L41.5115 11.1496V11.0767C41.5237 12.0732 42.508 13.3795 43.3578 14.5035C44.2993 15.6519 45.3081 16.782 46.3413 17.8696C48.3771 19.8443 50.4986 22.2626 53.2986 23.0221C53.9467 23.1071 53.8428 24.0914 53.1764 24.0185C49.9789 23.3988 47.6191 20.9745 45.2714 18.9329C43.5779 17.3106 41.8722 15.6884 40.5272 13.7441C40.0687 13.0635 39.5979 12.2251 39.5062 11.1861V11.1314L39.439 7.49795L41.6277 7.51618L41.4993 11.1314V11.1921C41.3342 12.2797 40.8451 12.9846 40.4049 13.6651C38.1551 16.776 35.2633 19.3826 32.2371 21.74C31.6257 22.1897 27.8352 24.8692 27.4745 23.5993C27.4011 23.3319 27.5662 23.0585 27.8291 22.9856L27.8352 22.9917Z" fill="black"/>
</g>
<defs>
<clipPath id="clip0_575_1089">
<rect width="81" height="139" fill="white" transform="translate(0 0.620117)"/>
</clipPath>
</defs>
</svg>
