<svg width="25" height="24" viewBox="0 0 25 24" fill="none" xmlns="http://www.w3.org/2000/svg">
<path d="M8.94531 2.45984C11.1406 2.45984 12.9688 4.1864 13.0703 6.39734C13.0781 6.4989 13.0859 6.59265 13.0781 6.66296C13.0547 6.99109 12.7812 7.20984 12.4531 7.20984C12.1484 7.20984 11.9062 7.01453 11.875 6.64734C11.875 6.57703 11.8672 6.53015 11.8672 6.48328C11.8047 4.92078 10.5156 3.67859 8.94531 3.67859C7.3125 3.67859 5.99219 4.9989 5.99219 6.6239C5.99219 7.31921 6.23438 7.97546 6.64062 8.47546C7 8.9364 6.63281 9.46765 6.17188 9.46765C5.98438 9.46765 5.78906 9.38953 5.64062 9.17859C5.10156 8.48328 4.77344 7.5614 4.77344 6.6239C4.77344 4.32703 6.64062 2.45984 8.94531 2.45984ZM16.3984 20.2177C13.7109 21.1942 11.2812 20.4364 9.24219 17.9833L6.59375 14.788C6.39844 14.5536 6.23438 14.2645 6.14844 14.0145C5.83594 13.1473 6.3125 12.3895 7.10938 12.1005C7.64062 11.9052 8.19531 12.038 8.65625 12.4833L9.42969 13.3192C9.45312 13.3427 9.47656 13.3505 9.50781 13.3427C9.53906 13.327 9.54688 13.2958 9.53906 13.2567L7.41406 7.42859C7.04688 6.42078 7.47656 5.50671 8.4375 5.15515C9.39062 4.8114 10.2969 5.23328 10.6641 6.24109L11.4688 8.46765C11.6016 8.36609 11.7422 8.29578 11.8828 8.24109C12.5391 7.9989 13.1641 8.1864 13.6016 8.70984C13.7734 8.57703 13.9609 8.46765 14.1719 8.38953C14.8047 8.15515 15.4062 8.31921 15.7969 8.79578C17.2344 8.3114 18.4531 9.04578 19.0859 10.7802L19.7266 12.5302C21.0234 16.1005 19.6797 19.0223 16.3984 20.2177ZM15.9844 18.9598C18.5938 18.0067 19.5625 15.7645 18.5 12.8348L17.9297 11.2723C17.5469 10.2333 17.0078 9.76453 16.4141 9.98328L16.6797 10.7255C16.7969 11.0302 16.625 11.3427 16.3438 11.4442C16.0547 11.5458 15.7266 11.4208 15.6094 11.1161L15.1953 9.95984C15.0703 9.6239 14.7891 9.48328 14.4688 9.60046C14.3359 9.64734 14.1953 9.73328 14.1016 9.82703L14.5859 11.1708C14.6953 11.4677 14.5312 11.7723 14.25 11.8739C13.9688 11.9833 13.6406 11.8583 13.5312 11.5536L12.8984 9.81921C12.7734 9.47546 12.5 9.33484 12.1719 9.45203C12.0391 9.4989 11.9062 9.59265 11.8047 9.6864L12.5 11.5927C12.6094 11.8895 12.4531 12.202 12.1641 12.3114C11.875 12.413 11.5391 12.2802 11.4375 11.9833L9.46875 6.59265C9.36719 6.3114 9.10938 6.1864 8.84375 6.28015C8.57031 6.38171 8.45312 6.64734 8.55469 6.92859L11.3438 14.5927C11.4844 14.9833 11.3203 15.3427 10.9766 15.4677C10.6953 15.5692 10.4062 15.5302 10.0938 15.2177L8.22656 13.3505C8.05469 13.163 7.875 13.0848 7.66406 13.163C7.39062 13.2645 7.29688 13.5145 7.38281 13.7411C7.42188 13.8505 7.46875 13.9286 7.54688 14.0145L10.2109 17.163C12.0078 19.288 13.9141 19.7098 15.9844 18.9598Z" fill="black"/>
</svg>
