<svg width="25" height="24" viewBox="0 0 25 24" fill="none" xmlns="http://www.w3.org/2000/svg">
<path d="M17.6953 20.2177C15 21.1942 12.5703 20.4364 10.5312 17.9833L7.88281 14.788C7.69531 14.5536 7.53125 14.2645 7.44531 14.0145C7.125 13.1473 7.60156 12.3895 8.39844 12.1005C8.9375 11.9052 9.48438 12.038 9.95312 12.4833L10.7266 13.3192C10.75 13.3427 10.7734 13.3505 10.7969 13.3427C10.8359 13.327 10.8438 13.2958 10.8281 13.2567L8.70312 7.42859C8.34375 6.42078 8.77344 5.50671 9.73438 5.15515C10.6797 4.8114 11.5859 5.23328 11.9531 6.24109L12.7656 8.46765C12.8906 8.36609 13.0312 8.29578 13.1797 8.24109C13.8281 7.9989 14.4609 8.1864 14.8906 8.70984C15.0625 8.57703 15.25 8.46765 15.4609 8.38953C16.1016 8.15515 16.7031 8.31921 17.0938 8.79578C18.5234 8.3114 19.75 9.04578 20.3828 10.7802L21.0156 12.5302C22.3203 16.1005 20.9688 19.0223 17.6953 20.2177ZM17.2812 18.9598C19.8906 18.0067 20.8594 15.7645 19.7891 12.8348L19.2188 11.2723C18.8438 10.2333 18.2969 9.76453 17.7031 9.98328L17.9766 10.7255C18.0859 11.0302 17.9219 11.3427 17.6406 11.4442C17.3516 11.5458 17.0156 11.4208 16.9062 11.1161L16.4844 9.95984C16.3594 9.6239 16.0859 9.48328 15.7578 9.60046C15.6328 9.64734 15.4922 9.73328 15.3906 9.82703L15.8828 11.1708C15.9922 11.4677 15.8281 11.7723 15.5469 11.8739C15.2578 11.9833 14.9297 11.8583 14.8203 11.5536L14.1875 9.81921C14.0703 9.47546 13.7891 9.33484 13.4688 9.45203C13.3359 9.4989 13.1953 9.59265 13.1016 9.6864L13.7969 11.5927C13.8984 11.8895 13.7422 12.202 13.4609 12.3114C13.1641 12.413 12.8359 12.2802 12.7266 11.9833L10.7656 6.59265C10.6641 6.3114 10.4062 6.1864 10.1328 6.28015C9.86719 6.38171 9.74219 6.64734 9.84375 6.92859L12.6328 14.5927C12.7734 14.9833 12.6094 15.3427 12.2734 15.4677C11.9922 15.5692 11.6953 15.5302 11.3828 15.2177L9.52344 13.3505C9.35156 13.163 9.17188 13.0848 8.95312 13.163C8.6875 13.2645 8.59375 13.5145 8.67188 13.7411C8.71875 13.8505 8.76562 13.9286 8.83594 14.0145L11.5078 17.163C13.3047 19.288 15.2031 19.7098 17.2812 18.9598ZM7.33594 6.98328L7.73438 8.06921C5.84375 9.31921 4.67188 11.4989 4.60156 14.2723C4.59375 14.5848 4.36719 14.827 4.05469 14.8348C3.75781 14.8427 3.48438 14.5692 3.48438 14.2489C3.48438 11.038 5 8.40515 7.33594 6.98328Z" fill="black"/>
</svg>
